<svg xmlns="http://www.w3.org/2000/svg" width="440" height="91.6" viewBox="0 0 440 91.6"><path fill="#C3CE4E" d="M57 31.7s-2.3 6.6 4.9 13.4c0 0 3.7 3.4 8-2.8 0 0 4.3-6.9-12.9-10.6zm19.3-4.4c-2.1-8.6-8.7-10.3-8.7-10.3-4-1-8.3 4-11 8-4.6 6-8.6 13.1-10.5 16.7-1.1-.8-2.4-2.1-3.9-3.9-.1-3.3.4-11.3 6.8-16.8 13.2 2.4 12.7-6.7 12.7-6.7-.9-9.8-5.7-7.6-5.7-7.6-6.9 3.2-9.2 9-9.9 11.8h-.1v-.2c1.1-4.5 1.2-7.7 1.2-9.7.1-5.7-3.2-5.7-3.2-5.7-6.2.4-5.8 5.3-5.8 5.3.9 8.3 5.2 10.4 6.3 10.8-1.2 2.9-3.9 10-4.1 16.6-1-1.2-2.1-2.5-3.2-4-1-1.2-1.9-2.5-2.7-3.7-1.8-2.5-3.4-5.2-4.8-7.9l.2-.2c14.4-14.9 5.6-18.8 5.6-18.8-8.4-3.3-9.7 2.6-9.7 2.6-.8 3.4-.7 6.3-.2 8.6-1.6-2.1-3.5-3.7-5.6-3.5 0 0-6 .5-9.2 7.8 0 0-1.7 3.5 3.4 4.8 0 0 3.4.8 7.9 1 .8 0 1.7.1 2.7.1l16.5 17.9.1 1.5-15.3-2.8c-1-.5-2.1-1.2-3.1-2.1-.4-.5-2.5-3-5-7.1-5.9-10.4-11-6.1-11-6.1-6.2 5.7-1.7 9.2-1.7 9.2 5.1 3.9 9.6 4.3 12.5 3.9.5.4 1.3.9 2.2 1.4l-.8 1.2c-2-.3-3.7-.5-5.1-.5-15.6-1.1-14.1 7.7-14.1 7.7 2.2 9.7 7.7 7.1 7.7 7.1 5.9-2.8 8.7-6.8 9.9-9.9 3.9-.5 7.8-.9 11.8-.7 1.4 0 2.9.1 4.5.2 3 .2 5.5.5 7.5.9-.2 3.8-1.9 13.8-10.5 23.8 0 0-11.6 12.3-12.1 23.3l25.4.3s-7.9-9.4-.6-34.3c.4-1.2.9-3 1.2-4.1 1.6-4.6 3.7-10.6 5.7-13.8.5-1 1.2-2 1.9-3.1 1.6-2.5 3-4.4 4.1-5.7 7.5 2.1 15.1 1.4 15.1 1.4 5.9-.6 4.7-4.7 4.7-4.7z"/><path fill="#322F2F" d="M106.9 47.5v2.6c-.9.3-1.9.5-2.8.6-1 .1-1.8 0-2.7-.3-.8-.3-1.5-.7-2.1-1.4-.6-.7-1-1.6-1.1-2.7-.1-4.4-.1-8.8 0-13.1v-13.1l1.3-.4c.4-.1.9-.2 1.3-.4v25c0 .7 0 1.2.1 1.7s.2.9.5 1.2c.2.3.6.5 1 .7.4.1 1 .2 1.8.2.5 0 1-.1 1.4-.2.3 0 .8-.2 1.3-.4zM123 50.9l-.2-2.5c-.7.7-1.5 1.4-2.5 1.8-.9.5-1.9.7-3 .7-1.9 0-3.4-.4-4.5-1.3s-1.9-1.9-2.3-3.1c-.4-1.2-.4-2.5-.1-3.8.3-1.3 1-2.5 2-3.5s2.4-1.6 4.1-2c1.7-.3 3.8-.1 6.2.6v-2.5c0-1.3-.4-2.2-1.3-2.9-.9-.6-1.9-.9-3.1-.9-1.1 0-2.3.2-3.4.7-1.2.5-2.2 1-3.1 1.7l.5-3.1c1-.5 2-1 3.1-1.3 1.1-.3 2.2-.5 3.3-.5 1.8 0 3.2.3 4.2.9.9.6 1.6 1.4 2 2.5.4 1 .6 2.2.6 3.5v9c0 1.6 0 3.3.1 5l-2.6 1zm-.7-10.2c-.3-.3-.6-.5-1-.8-.4-.2-.8-.4-1.2-.5-.4-.1-.8-.2-1.1-.2-.7 0-1.5.1-2.2.3-.7.2-1.4.5-2 1-.6.4-1 1-1.4 1.6-.4.6-.5 1.4-.5 2.2 0 1.1.4 2 1.1 2.7.7.7 1.6 1.1 2.7 1.2 1 .1 2.1 0 3.1-.5 1.1-.4 1.9-1.2 2.6-2.3.1-.1.1-.2.2-.4s.1-.3.1-.4v-3c0-.3-.1-.6-.4-.9z"/><g fill="#C9CC2D"><path d="M144.2 22.2c-.4-.1-.9-.1-1.3-.1-1.3 0-2.2.2-2.9.6-.6.4-1.1.9-1.4 1.6-.3.7-.4 1.5-.5 2.3v2.8h5v2.5h-5v18.2l-2.7.5v-18.6h-3.3l.4-2.5h2.9v-2.8c0-2.4.7-4.2 2.1-5.5 1.4-1.2 3.3-1.8 5.6-1.8.7 0 1.3.2 1.9.5l.4 2.6c-.3-.1-.7-.2-1.2-.3zM134.5 51.8v-18.9h-3.4l.7-4.4h2.8v-1.8c0-2.7.8-4.8 2.4-6.2 1.6-1.4 3.7-2.1 6.2-2.1.8 0 1.6.2 2.4.6l.4.2.7 4.7-1.5-.5-1.2-.3c-.4-.1-.8-.1-1.2-.1-1.3 0-2 .3-2.4.5-.5.3-.8.7-1 1.2-.2.6-.4 1.2-.4 2v1.8h5v4.4h-5v18.1l-4.5.8zm-1.2-20.8h3.1v18.5l.8-.1v-18.4h5v-.6h-5v-3.8c0-1 .2-1.9.5-2.7.4-.9 1-1.6 1.8-2.1s1.9-.8 3.4-.8c.5 0 1 0 1.5.1l-.1-.7c-.4-.1-.7-.2-1.1-.2-2.1 0-3.8.5-5 1.6-1.2 1-1.8 2.6-1.8 4.7v3.7h-3l-.1.8z"/></g><g fill="#C9CC2D"><path d="M152 25.1c-.3.3-.7.4-1.1.4-.4 0-.8-.1-1.1-.4-.3-.3-.5-.7-.5-1.2 0-.6.2-1 .5-1.2.3-.3.7-.4 1.1-.4.4 0 .8.1 1.1.4.3.3.5.7.5 1.2 0 .6-.1 1-.5 1.2zm-2.3 25.5v-20.7l1.3-.4c.5-.1.9-.3 1.3-.4v21.1l-2.6.4zM148.8 51.8v-22.6l2-.6c.5-.1.9-.3 1.3-.4l1.3-.4v23.2l-4.6.8zm1.9-21.2v18.9l.7-.1v-19h-.1l-.6.2zm.2-4.1c-.6 0-1.2-.2-1.7-.6-.4-.3-.8-.9-.8-1.9 0-1.1.5-1.7.9-2 1-.8 2.4-.8 3.4 0 .4.3.9.9.9 1.9 0 1-.5 1.6-.9 2-.6.4-1.2.6-1.8.6zm0-3.2c-.2 0-.3.1-.5.2-.1.1-.1.3-.1.5 0 .3.1.4.2.4.3.3.8.2 1 0 0 0 .1-.1.1-.5 0-.3-.1-.4-.2-.5-.1-.1-.3-.1-.5-.1z"/></g><g fill="#C9CC2D"><path d="M173.7 50.6v-13.3c0-1.7-.4-3.1-1.2-4.2-.8-1.1-2.1-1.6-3.9-1.6-1.3 0-2.4.3-3.4 1s-1.8 1.6-2.4 2.7l-.2.5-.2.5v13.9l-2.7.5v-21c.9-.2 1.7-.4 2.6-.7v3.3c.7-1 1.6-1.8 2.7-2.4 1-.6 2.2-.9 3.5-.9 2.6 0 4.5.8 5.9 2.3 1.3 1.5 2 3.5 2 6v12.9l-2.7.5zM172.8 51.8v-14.5c0-1.5-.4-2.7-1-3.6-.6-.9-1.7-1.3-3.2-1.3-1.1 0-2 .3-2.9.9-.9.6-1.5 1.4-2 2.4 0 .1-.1.2-.2.4 0 .1-.1.2-.1.2v14.7l-4.6.8v-22.9l.8-.2 2.6-.6 1.2-.4v2.2c.4-.3.8-.6 1.3-.9 1.2-.7 2.5-1 4-1 2.9 0 5.1.9 6.6 2.6 1.5 1.7 2.2 3.9 2.2 6.6v13.8l-4.7.8zm-12.2-21.4v19.1l.8-.1v-13.1c0-.2 0-.4.3-.9.1-.3.2-.5.2-.6.6-1.3 1.5-2.3 2.7-3.1 1.1-.8 2.5-1.2 4-1.2 2.1 0 3.7.7 4.7 2 .9 1.3 1.4 2.9 1.4 4.8v12.2l.8-.1v-12.1c0-2.3-.6-4.1-1.8-5.4-1.1-1.3-2.8-1.9-5.1-1.9-1.2 0-2.2.3-3.1.8-.9.5-1.7 1.3-2.4 2.2l-1.7 2.4v-5c-.3-.1-.5 0-.8 0z"/></g><g fill="#C9CC2D"><path d="M195.2 50.9l-.2-2.5c-.7.7-1.5 1.4-2.5 1.8-.9.5-1.9.7-3 .7-1.9 0-3.4-.4-4.5-1.3s-1.9-1.9-2.3-3.1c-.4-1.2-.4-2.5-.1-3.8.3-1.3 1-2.5 2-3.5s2.4-1.6 4.1-2c1.7-.3 3.8-.1 6.2.6v-2.5c0-1.3-.4-2.2-1.3-2.9-.8-.6-1.9-.9-3.1-.9-1.1 0-2.3.2-3.4.7-1.2.5-2.2 1-3.1 1.7l.5-3.1c1-.5 2-1 3.1-1.3 1.1-.3 2.2-.5 3.3-.5 1.8 0 3.2.3 4.2.9.9.6 1.6 1.4 2 2.5.4 1 .6 2.2.6 3.5v9c0 1.6 0 3.3.1 5l-2.6 1zm-.7-10.2c-.3-.3-.6-.5-1-.8-.4-.2-.8-.4-1.2-.5-.4-.1-.8-.2-1.1-.2-.7 0-1.5.1-2.2.3-.7.2-1.4.5-2 1-.6.4-1 1-1.4 1.6-.4.6-.5 1.4-.5 2.2 0 1.1.4 2 1.1 2.7.7.7 1.6 1.1 2.7 1.2 1 .1 2.1 0 3.1-.5 1.1-.4 1.9-1.2 2.5-2.3.1-.1.1-.2.2-.4s.1-.3.1-.4v-3c.2-.3 0-.6-.3-.9zM194.4 52.2l-.2-1.9c-.4.3-.8.5-1.3.7-1.1.5-2.2.8-3.4.8-2.1 0-3.8-.5-5.1-1.5-1.3-1-2.2-2.2-2.6-3.6-.5-1.4-.5-2.8-.2-4.4.4-1.5 1.1-2.8 2.3-3.9 1.2-1.1 2.7-1.9 4.6-2.2 1.6-.3 3.4-.2 5.4.3v-1.2c0-1-.3-1.7-.9-2.1-1.4-1-3.4-1-5.6-.1-1.1.5-2.1 1-2.9 1.6l-1.9 1.3 1-5.8.4-.2c1-.5 2.1-1 3.2-1.4 1.2-.4 2.4-.6 3.6-.6 2.1 0 3.6.4 4.7 1.1 1.1.7 1.9 1.7 2.3 2.9.4 1.1.6 2.4.6 3.8v9c0 1.6 0 3.3.1 5v.7l-4.1 1.7zm-3.9-14.2c-.5 0-1.1 0-1.5.1-1.5.3-2.7.9-3.6 1.7-.9.9-1.5 1.8-1.7 3-.3 1.2-.2 2.3.1 3.3.3 1 1 1.9 2 2.7.9.7 2.3 1.1 3.9 1.1.9 0 1.7-.2 2.6-.6.8-.4 1.6-.9 2.2-1.6l1.5-1.6.3 3.5.8-.3c-.1-1.5-.1-2.9-.1-4.3v-9c0-1.2-.2-2.3-.5-3.2-.3-.8-.8-1.5-1.6-2s-2-.8-3.6-.8c-1 0-2 .2-3 .5-.8.3-1.7.6-2.5 1l-.1.6c.5-.2.9-.5 1.5-.7 2.8-1.1 5.5-1.1 7.4.3.8.6 1.7 1.6 1.7 3.6v3.8l-1.2-.4c-2-.5-3.4-.7-4.6-.7zm-.9 11.3c-.3 0-.6 0-.9-.1-1.2-.2-2.3-.7-3.2-1.5-1-.9-1.4-2-1.4-3.4 0-1 .2-1.9.7-2.7.4-.7 1-1.4 1.7-1.9s1.4-.9 2.3-1.1c.8-.2 1.6-.4 2.5-.4.4 0 .8.1 1.3.2s1 .3 1.4.6c.4.2.9.6 1.2.9.5.4.7 1 .7 1.6v3c0 .3-.1.5-.2.9-.1.2-.2.4-.3.5-.7 1.2-1.7 2.1-3 2.7-.9.5-1.8.7-2.8.7zm1.7-9.1c-.7 0-1.3.1-1.9.3-.6.2-1.2.5-1.7.8-.5.4-.8.8-1.1 1.3-.3.5-.4 1.1-.4 1.7 0 .9.3 1.5.8 2 .6.5 1.3.9 2.2 1 .8.1 1.7 0 2.6-.4.9-.4 1.6-1 2.1-1.9l.2-.3.1-.1v-3s0-.1-.1-.3c-.2-.2-.5-.4-.8-.6-.3-.2-.7-.3-1-.4-.7 0-.9-.1-1-.1z"/></g><g fill="#C9CC2D"><path d="M217.9 50.6v-13.3c0-1.7-.4-3.1-1.2-4.2-.8-1.1-2.1-1.6-3.9-1.6-1.3 0-2.4.3-3.4 1s-1.8 1.6-2.4 2.7l-.2.5-.2.5v13.9l-2.7.5v-21c.9-.2 1.7-.4 2.6-.7v3.3c.7-1 1.6-1.8 2.7-2.4 1-.6 2.2-.9 3.5-.9 2.6 0 4.5.8 5.9 2.3 1.3 1.5 2 3.5 2 6v12.9l-2.7.5zM217 51.8v-14.5c0-1.5-.3-2.7-1-3.6-.6-.9-1.7-1.3-3.2-1.3-1.1 0-2.1.3-2.9.9-.9.6-1.5 1.4-2 2.4 0 .1-.1.2-.2.4l-.1.3v14.6l-4.6.8v-22.9l.8-.2 2.6-.6 1.2-.4v2.2l1.2-.9c1.2-.7 2.5-1 4-1 2.9 0 5.1.9 6.6 2.6 1.5 1.7 2.2 3.9 2.2 6.6v13.8l-4.6.8zm-12.1-21.4v19.1l.8-.1v-13.1c0-.2.1-.4.2-.9.1-.3.2-.5.3-.6.6-1.3 1.5-2.3 2.7-3.1 1.1-.8 2.5-1.2 4-1.2 2.1 0 3.7.7 4.7 2 .9 1.2 1.4 2.8 1.4 4.8v12.2l.8-.1v-12.1c0-2.3-.6-4.1-1.7-5.4-1.1-1.3-2.8-1.9-5.1-1.9-1.2 0-2.2.2-3.1.8-.9.5-1.7 1.3-2.4 2.2l-1.7 2.4v-5c-.5-.1-.7 0-.9 0z"/></g><g fill="#C9CC2D"><path d="M240.4 50.4c-1.2.3-2.4.5-3.5.5-2.4 0-4.4-.5-6-1.6-1.6-1.1-2.8-2.4-3.6-4.1-.8-1.6-1.2-3.4-1.1-5.3 0-1.9.4-3.6 1.3-5.3.8-1.6 2-3 3.6-4 1.6-1.1 3.6-1.6 5.9-1.6 1.2 0 2.3.2 3.4.5s2.2.8 3.2 1.3l-1 2.5c-.8-.5-1.7-.9-2.7-1.3-.9-.3-1.9-.5-2.9-.5-1.8 0-3.3.4-4.5 1.2-1.2.8-2.1 1.8-2.7 3.1-.6 1.2-.9 2.6-.9 4s.3 2.8.9 4c.6 1.2 1.5 2.2 2.7 3.1 1.2.8 2.7 1.2 4.4 1.2 1 0 2-.1 3-.5 1-.3 1.9-.7 2.7-1.3l.9 2.5c-.9.7-1.9 1.2-3.1 1.6zM236.9 51.8c-2.6 0-4.8-.6-6.5-1.8-1.7-1.2-3-2.7-3.9-4.4-.9-1.7-1.3-3.7-1.2-5.7 0-2 .5-3.9 1.4-5.7.9-1.8 2.2-3.2 3.9-4.4 1.7-1.2 3.9-1.8 6.5-1.8 1.2 0 2.5.2 3.7.6 1.2.4 2.3.8 3.4 1.4l.7.4-1.7 4.4-1-.6c-.8-.5-1.6-.9-2.5-1.2-.8-.3-1.7-.4-2.6-.4-1.6 0-2.9.4-3.9 1.1-1.1.7-1.9 1.6-2.4 2.7s-.8 2.3-.8 3.6c0 1.3.3 2.5.8 3.6s1.3 2 2.3 2.7c1 .7 2.3 1.1 3.9 1.1.9 0 1.8-.1 2.7-.4.9-.3 1.7-.7 2.5-1.2l1-.7 1.6 4.3-.6.4c-1 .7-2.2 1.2-3.4 1.6-1.4.3-2.7.4-3.9.4zm0-21.8c-2.2 0-4 .5-5.4 1.5-1.4 1-2.5 2.2-3.3 3.7-.8 1.5-1.1 3.1-1.2 4.9 0 1.7.3 3.3 1 4.8s1.8 2.7 3.3 3.7c1.4 1 3.3 1.5 5.5 1.5 1 0 2.1-.2 3.2-.5.8-.2 1.6-.6 2.3-.9l-.2-.6c-.6.3-1.3.6-2 .8-1.1.3-2.2.5-3.3.5-2 0-3.7-.5-5-1.4-1.3-.9-2.3-2.1-3-3.4-.7-1.3-1-2.8-1-4.4 0-1.6.3-3.1 1-4.4.7-1.4 1.7-2.5 3-3.4 1.4-.9 3-1.4 5-1.4 1.1 0 2.2.2 3.2.5.6.2 1.2.5 1.8.8l.3-.7c-.7-.3-1.5-.6-2.3-.9-.8-.6-1.8-.7-2.9-.7z"/></g><g fill="#C9CC2D"><path d="M266.9 36.6l-16.2 5.2c.2.9.6 1.8 1.1 2.6.5.8 1.1 1.5 1.8 2 .7.6 1.5 1 2.3 1.3.9.3 1.8.5 2.8.5 1.5 0 2.8-.3 4.1-1.1 1.3-.7 2.5-1.5 3.6-2.4v3.2c-1.2 1.1-2.5 1.9-3.9 2.4s-2.8.7-4.1.7c-1.4 0-2.7-.3-4-.9-1.3-.5-2.4-1.3-3.4-2.3-1-1-1.8-2.1-2.3-3.5-.6-1.3-.9-2.8-.9-4.5 0-2.2.4-4 1.3-5.6.9-1.5 1.9-2.7 3.3-3.6 1.3-.8 2.8-1.4 4.3-1.5 1.6-.2 3.1 0 4.5.5s2.6 1.3 3.7 2.5c1 1.2 1.7 2.6 2 4.5zm-3.7-1.5c-.4-1-.9-1.8-1.6-2.4-.7-.6-1.6-.9-2.5-1.1-.9-.1-1.9-.1-2.9.1s-1.9.7-2.7 1.4c-.8.7-1.5 1.5-2 2.6-.5 1-.8 2.3-.9 3.7l12.6-4.3zM258.7 51.9h-.4c-1.5 0-2.9-.4-4.3-1s-2.6-1.4-3.7-2.5c-1.1-1-1.9-2.3-2.5-3.8-.6-1.4-.9-3.1-.9-4.9 0-2.4.5-4.4 1.4-6 .9-1.6 2.1-3 3.6-3.9 1.4-.9 3-1.5 4.8-1.7 1.7-.2 3.4 0 4.9.5 1.6.5 2.9 1.5 4.1 2.7 1.2 1.3 1.9 3 2.2 5l.1.8-16.1 5.2c.2.5.4 1 .7 1.5.4.7 1 1.3 1.6 1.8.6.5 1.3.9 2.1 1.2.8.3 1.6.4 2.4.4 1.3 0 2.5-.3 3.7-.9 1.2-.7 2.4-1.5 3.4-2.3l1.6-1.3v5.7l-.3.3c-1.3 1.2-2.7 2-4.2 2.6-1.5.4-2.8.6-4.2.6zm-.8-21.9c-.4 0-.7 0-1.1.1-1.4.2-2.7.6-3.9 1.4-1.2.8-2.2 1.9-2.9 3.2-.8 1.4-1.2 3.1-1.2 5.1 0 1.5.3 2.9.8 4.2.5 1.2 1.2 2.3 2.1 3.2.9.9 1.9 1.6 3.1 2.1 1.2.5 2.4.8 3.6.8h.4c1.1 0 2.3-.2 3.4-.6 1.1-.4 2.2-1 3.2-1.9v-.8c-.7.5-1.4.9-2.2 1.3-1.4.8-3 1.2-4.6 1.2-1.1 0-2.1-.2-3.1-.5-.9-.3-1.8-.8-2.6-1.5-.8-.6-1.4-1.4-2-2.3-.5-.9-.9-1.8-1.2-2.9l-.2-.9 16.2-5.2c-.3-1.3-.8-2.3-1.6-3.2-.9-1-2-1.8-3.3-2.2-.9-.4-1.9-.6-2.9-.6zm-8.4 10.9l.1-1.4c.1-1.6.4-3 1-4.1.6-1.2 1.4-2.1 2.3-2.9.9-.7 2-1.3 3.1-1.5 1.1-.3 2.2-.3 3.2-.2 1.1.2 2.1.6 2.9 1.3.9.7 1.5 1.6 1.9 2.8l.3.9-14.8 5.1zm8.5-8.3c-.5 0-1 .1-1.6.2-.8.2-1.6.6-2.3 1.2-.7.6-1.3 1.3-1.8 2.3-.3.6-.5 1.2-.6 1.9l10.2-3.5c-.2-.4-.6-.8-.9-1.1-.6-.5-1.3-.8-2-.9-.4-.1-.7-.1-1-.1z"/></g><path fill="#322F2F" d="M275.2 59.7l-2.7.5v-30.5l2.7-.4v2.6c.9-.9 2-1.6 3.2-2.1 1.2-.5 2.4-.8 3.7-.8 1.6 0 3.1.3 4.4.8 1.3.6 2.5 1.3 3.4 2.3 1 1 1.7 2.1 2.2 3.5.5 1.3.8 2.8.8 4.4 0 1.4-.3 2.8-.8 4.1-.5 1.3-1.3 2.4-2.2 3.5-1 1-2.1 1.8-3.3 2.4-1.3.6-2.6.9-4.1.9-1.3 0-2.6-.2-3.8-.6-1.3-.4-2.4-1.1-3.3-2v11.4zm13.9-23.6c-.6-1.1-1.3-2.1-2.3-2.8-.9-.7-1.9-1.2-3-1.5-1.1-.3-2.2-.3-3.3-.1-1.1.2-2.1.6-2.9 1.2-.9.6-1.6 1.5-2 2.5-.1.2-.2.4-.2.6-.1.2-.1.4-.1.6v6.7c0 .1.1.3.2.6l.3.6c.5 1.1 1.3 1.9 2.2 2.5.9.6 1.9.9 3 1.1 1.1.1 2.1.1 3.2-.2 1.1-.3 2.1-.8 2.9-1.5.9-.7 1.6-1.6 2.1-2.6.5-1.1.8-2.3.8-3.7 0-1.5-.3-2.9-.9-4zM316.6 44.2c-.5 1.3-1.3 2.5-2.3 3.5-1 1-2.1 1.8-3.4 2.4-1.3.6-2.7.9-4.2.9s-2.9-.3-4.2-.9c-1.3-.6-2.4-1.4-3.4-2.4s-1.7-2.1-2.3-3.5c-.5-1.3-.8-2.7-.8-4.2s.3-2.9.8-4.3c.5-1.3 1.3-2.5 2.2-3.5.9-1 2.1-1.8 3.4-2.3 1.3-.6 2.7-.9 4.3-.9 1.5 0 2.9.3 4.3.9 1.3.6 2.4 1.4 3.4 2.3 1 1 1.7 2.2 2.3 3.5.5 1.3.8 2.8.8 4.3-.1 1.5-.4 2.9-.9 4.2zm-2.5-7.4c-.4-1-1-1.9-1.7-2.7-.7-.8-1.6-1.4-2.5-1.8-1-.4-2-.7-3.1-.7s-2.2.2-3.2.7c-1 .5-1.8 1.1-2.5 1.8-.7.8-1.3 1.6-1.7 2.7-.4 1-.6 2.1-.6 3.2s.2 2.1.6 3.2c.4 1 1 1.9 1.7 2.7.7.8 1.6 1.4 2.5 1.8 1 .4 2 .7 3.1.7s2.2-.2 3.1-.7c1-.4 1.8-1.1 2.5-1.8.7-.8 1.3-1.6 1.7-2.7.4-1 .6-2.1.6-3.2.1-1.1-.1-2.2-.5-3.2zM336.4 50.4c-.4.1-.9.1-1.4 0v-2.9c-.7 1-1.7 1.9-2.7 2.5-1 .6-2.2.9-3.5.9-2.7 0-4.6-.8-5.9-2.2-1.3-1.5-1.9-3.5-1.9-6.1v-12.8l2.7-.4v12.6c0 .9.1 1.8.2 2.5.2.8.4 1.4.8 2 .4.6.9 1 1.6 1.3.7.3 1.5.5 2.5.5.9 0 1.8-.2 2.5-.5.7-.4 1.4-.9 1.9-1.5s.9-1.3 1.2-2.1c.3-.8.5-1.6.5-2.5.1-.7.1-1.3 0-2v-10l2.7-.4v20.8c-.3.2-.8.2-1.2.3zM354.6 32.9l-1.1-.9c-.3-.2-.8-.3-1.3-.3-.7 0-1.4.2-2.1.7-.7.5-1.4 1-1.9 1.7-.6.7-1.1 1.4-1.4 2.2-.4.8-.6 1.5-.6 2.1v11.7l-2.7.5v-21l2.7-.4v4.5c.4-.8 1-1.6 1.8-2.3.8-.8 1.6-1.4 2.5-1.8.9-.4 1.8-.6 2.8-.6.9 0 1.8.5 2.7 1.4l-1.4 2.5z"/><g fill="#C9CC2D"><path d="M373.1 50.1c-1.1.4-2.1.7-3.1.7s-2-.2-2.8-.6c-.8-.4-1.5-1-2-1.8s-.8-1.9-.8-3.2v-13.2h-4.1l.3-2.5h3.7v-4.9l2.7-1.9v6.7h5.7v2.5h-5.7v12.4c0 .7 0 1.2.1 1.7s.2.9.5 1.2c.2.3.6.5 1 .7.4.1 1 .2 1.8.2.5 0 1-.1 1.4-.2.5-.1.9-.3 1.4-.5l-.1 2.7zM369.8 51.7c-1.1 0-2.2-.2-3.1-.7-1-.5-1.8-1.2-2.4-2.2-.6-1-.9-2.2-.9-3.7v-12.2h-4.2l.6-4.4h3.6v-4.4l4.6-3.2v7.6h5.7v4.4h-5.7v11.5c0 .6 0 1.2.1 1.6 0 .3.1.6.3.8.1.2.3.3.6.4.3.1.8.2 1.5.2.4 0 .8-.1 1.2-.2.4-.1.9-.3 1.3-.5l1.4-.6-.2 4.8-.6.2c-1.2.5-2.3.7-3.5.7h-.3zm-8.4-20.7h4v14.2c0 1.1.2 2 .6 2.7.4.7 1 1.2 1.6 1.5.7.3 1.4.5 2.3.5h.1c.7 0 1.5-.1 2.2-.4v-.6h-.1c-.5.2-1.1.3-1.7.3-.9 0-1.5-.1-2.1-.3-.6-.2-1.1-.6-1.5-1-.3-.4-.6-1-.7-1.6-.1-.5-.1-1.2-.1-1.9v-13.4h5.7v-.6h-5.7v-5.8l-.8.5v5.3h-3.8v.6z"/></g><g fill="#C9CC2D"><path d="M396.8 44.2c-.5 1.3-1.3 2.5-2.3 3.5-1 1-2.1 1.8-3.4 2.4-1.3.6-2.7.9-4.2.9s-2.9-.3-4.2-.9c-1.3-.6-2.4-1.4-3.4-2.4s-1.7-2.1-2.3-3.5c-.5-1.3-.8-2.7-.8-4.2s.3-2.9.8-4.3c.5-1.3 1.3-2.5 2.2-3.5.9-1 2.1-1.8 3.4-2.3 1.3-.6 2.7-.9 4.3-.9 1.5 0 2.9.3 4.3.9 1.3.6 2.4 1.4 3.4 2.3 1 1 1.7 2.2 2.3 3.5.5 1.3.8 2.8.8 4.3-.1 1.5-.4 2.9-.9 4.2zm-2.6-7.4c-.4-1-1-1.9-1.7-2.7-.7-.8-1.6-1.4-2.5-1.8-1-.4-2-.7-3.1-.7s-2.2.2-3.2.7c-1 .5-1.8 1.1-2.5 1.8-.7.8-1.3 1.6-1.7 2.7-.4 1-.6 2.1-.6 3.2s.2 2.1.6 3.2c.4 1 1 1.9 1.7 2.7.7.8 1.6 1.4 2.5 1.8 1 .4 2 .7 3.1.7s2.2-.2 3.1-.7c1-.4 1.8-1.1 2.5-1.8.7-.8 1.3-1.6 1.7-2.7.4-1 .6-2.1.6-3.2.1-1.1-.1-2.2-.5-3.2zM386.8 51.8c-1.6 0-3.2-.3-4.6-.9-1.4-.6-2.7-1.5-3.7-2.6s-1.9-2.3-2.5-3.8c-.6-1.4-.9-3-.9-4.6 0-1.6.3-3.2.9-4.6.6-1.5 1.4-2.7 2.4-3.8 1-1.1 2.3-1.9 3.7-2.6 2.9-1.3 6.4-1.3 9.3 0 1.4.6 2.6 1.5 3.7 2.6s1.9 2.4 2.5 3.8c.6 1.4.9 3 .9 4.6 0 1.6-.3 3.2-.9 4.6-.6 1.4-1.4 2.7-2.5 3.8-1 1.1-2.3 1.9-3.7 2.6-1.4.6-3 .9-4.6.9zm0-21.8c-1.4 0-2.7.3-3.9.8-1.2.5-2.2 1.2-3.1 2.1-.9.9-1.5 2-2.1 3.2-.5 1.2-.8 2.5-.8 3.9s.2 2.6.8 3.9c.5 1.2 1.2 2.3 2.1 3.2.9.9 1.9 1.6 3.1 2.2 2.3 1 5.3 1 7.7 0 1.2-.5 2.3-1.3 3.1-2.2.9-.9 1.6-2 2.1-3.2.5-1.2.7-2.5.7-3.9s-.3-2.7-.7-3.9c-.5-1.2-1.2-2.3-2.1-3.2-.9-.9-1.9-1.6-3.1-2.1-1.1-.6-2.4-.8-3.8-.8zm0 19.2c-1.3 0-2.4-.3-3.5-.8-1-.5-2-1.2-2.8-2-.8-.9-1.4-1.9-1.9-3-.4-1.1-.7-2.3-.7-3.5 0-1.2.2-2.4.7-3.5.4-1.1 1.1-2.1 1.8-2.9.8-.8 1.7-1.5 2.8-2 2.3-1 4.9-1 7.1 0 1.1.5 2.1 1.2 2.8 2 .8.9 1.4 1.8 1.9 3 .5 1.1.7 2.3.7 3.6v1h-.1c-.1.9-.3 1.7-.6 2.6-.4 1.1-1.1 2.1-1.8 2.9-.8.9-1.8 1.5-2.8 2-1.1.4-2.3.6-3.6.6zm0-16.6c-1 0-1.9.2-2.8.6-.9.4-1.6 1-2.2 1.6-.6.7-1.1 1.5-1.5 2.4-.4.9-.5 1.8-.5 2.8 0 1 .2 1.9.5 2.8.4.9.8 1.7 1.5 2.4.6.7 1.4 1.2 2.2 1.6 1.7.8 3.8.8 5.5 0 .8-.4 1.6-.9 2.2-1.6.6-.7 1.1-1.5 1.5-2.4.4-.9.5-1.8.5-2.8v-.8c-.1-.7-.2-1.4-.5-2-.4-.9-.9-1.7-1.5-2.4s-1.4-1.2-2.3-1.6c-.7-.4-1.6-.6-2.6-.6z"/></g><g fill="#C9CC2D"><path d="M418.4 50.4c-.4.1-.9.1-1.4 0v-2.9c-.8 1-1.6 1.9-2.7 2.5-1.1.6-2.2.9-3.5.9-2.7 0-4.6-.8-5.9-2.2-1.3-1.5-1.9-3.5-1.9-6.1v-12.8l2.7-.4v12.6c0 .9.1 1.8.2 2.5.2.8.4 1.4.8 2 .4.6.9 1 1.6 1.3.7.3 1.5.5 2.5.5.9 0 1.8-.2 2.5-.5.7-.4 1.4-.9 1.9-1.5s.9-1.3 1.2-2.1c.3-.8.5-1.6.5-2.5.1-.7.1-1.3 0-2v-10l2.7-.4v20.8c-.3.2-.8.2-1.2.3zM410.8 51.8c-3 0-5.2-.9-6.6-2.6-1.4-1.7-2.1-3.9-2.1-6.7v-13.5l4.6-.7v13.7c0 .8.1 1.6.2 2.3.1.6.4 1.2.7 1.6.3.4.7.8 1.2 1 .6.3 1.3.4 2.1.4s1.5-.1 2.1-.4c.6-.3 1.1-.7 1.6-1.2s.8-1.1 1-1.8c.3-.7.4-1.5.5-2.3.1-.7.1-1.3 0-1.8v-10.8l4.6-.7v22.7l-.8.1c-.5.1-.9.1-1.3.2-.5.1-1 .1-1.6 0l-.8-.1v-1.3l-1.2.9c-1.4.7-2.7 1-4.2 1zm-6.8-21.1v11.9c0 2.3.6 4.2 1.7 5.5 1.1 1.3 2.8 1.9 5.2 1.9 1.1 0 2.1-.3 3-.8.9-.6 1.7-1.3 2.4-2.2l1.7-2.4v5h.3c.2 0 .4 0 .5-.1v-19l-.8.1v11.2c-.1 1-.3 1.9-.6 2.7-.3.9-.8 1.7-1.4 2.4-.6.7-1.3 1.3-2.2 1.7-.9.4-1.8.6-2.9.6-1.1 0-2.1-.2-2.9-.6-.8-.4-1.5-.9-2-1.6-.5-.7-.8-1.5-1-2.3-.2-.8-.3-1.8-.3-2.7v-11.5l-.7.2z"/></g><g fill="#C9CC2D"><path d="M426.4 46c.8.7 1.6 1.2 2.6 1.6 1 .4 2 .6 3 .6.5 0 1-.1 1.6-.2.5-.1 1-.3 1.4-.6.4-.3.8-.6 1-1.1.3-.4.4-.9.4-1.5 0-.8-.3-1.5-.8-2s-1.2-.9-2-1.2c-.8-.3-1.7-.6-2.6-.9-.9-.3-1.8-.7-2.6-1.1-.8-.4-1.5-1-2-1.8-.5-.7-.8-1.7-.8-2.9 0-1.5.5-2.7 1.4-3.7.9-1 2.1-1.6 3.4-1.9 1.3-.3 2.7-.3 4.2 0s2.8 1 3.9 2l-.8 2.5c-.7-.6-1.5-1.1-2.4-1.6-.9-.4-1.8-.6-2.7-.6-.5 0-1 .1-1.6.2-.5.1-1 .3-1.4.6-.4.3-.8.6-1 1-.3.4-.4.9-.4 1.5 0 .8.3 1.4.8 1.9s1.2.8 2 1.2c.8.3 1.7.6 2.6.9.9.3 1.8.7 2.6 1.1.8.5 1.5 1.1 2 1.8s.8 1.7.8 2.9c0 1-.2 1.9-.6 2.6-.4.8-.9 1.4-1.6 1.9-.7.5-1.4.9-2.3 1.2-.9.3-1.7.4-2.6.4-1.3 0-2.5-.3-3.6-.8-1.2-.5-2.2-1.2-3.1-2l1.2-2zM431.9 51.9c-1.4 0-2.7-.3-4-.8-1.2-.5-2.4-1.3-3.4-2.2l-.6-.5 2.1-3.9.9.8c.7.6 1.5 1.1 2.4 1.5 1.2.6 2.5.7 4 .4.4-.1.8-.3 1.1-.5.3-.2.6-.5.8-.8.2-.3.3-.6.3-1 0-.7-.3-1.1-.5-1.3-.5-.4-1-.8-1.7-1.1-.7-.3-1.6-.6-2.5-.9-1-.3-2-.7-2.8-1.2-.9-.5-1.7-1.2-2.3-2-.6-.9-1-2.1-1-3.5 0-1.8.6-3.2 1.7-4.3 1.1-1.1 2.4-1.8 3.9-2.2 1.5-.3 3-.3 4.7 0 1.6.4 3.1 1.1 4.3 2.2l.5.4-1.5 4.4-1.1-.9c-.7-.6-1.4-1-2.2-1.4-1.2-.6-2.4-.7-3.7-.4-.4.1-.8.2-1.1.4-.3.2-.5.4-.7.7-.2.3-.2.6-.2 1 0 .7.3 1 .4 1.1.5.4 1 .7 1.8 1 .8.3 1.6.6 2.5.9 1 .3 1.9.7 2.8 1.2.9.5 1.7 1.2 2.3 2.1.6.9 1 2.1 1 3.5 0 1.2-.2 2.2-.7 3.1-.5.9-1.1 1.6-1.9 2.2-.7.6-1.6 1-2.6 1.4-1 .4-2 .6-3 .6zm-5.5-4c.7.5 1.5 1 2.3 1.4 1.8.8 3.7.9 5.6.3.8-.3 1.4-.6 2-1.1.6-.4 1-1 1.4-1.6.3-.6.5-1.3.5-2.2 0-1-.2-1.8-.6-2.4-.5-.6-1-1.1-1.7-1.5-.7-.4-1.6-.8-2.4-1-1-.3-1.9-.6-2.7-1-.9-.4-1.6-.8-2.3-1.3-.7-.6-1.1-1.5-1.1-2.6 0-.8.2-1.5.5-2s.8-1 1.3-1.3c.5-.3 1.1-.5 1.7-.7 1.8-.4 3.3-.2 4.9.5l1.5.9.2-.6c-.9-.7-1.9-1.1-3-1.4-1.3-.3-2.6-.3-3.8 0-1.2.3-2.1.8-2.9 1.6-.8.8-1.1 1.8-1.1 3 0 1 .2 1.8.6 2.3.4.6 1 1.1 1.7 1.5.7.4 1.6.8 2.4 1.1 1 .3 1.9.7 2.7 1 .9.4 1.7.8 2.3 1.4.7.7 1.1 1.6 1.1 2.7 0 .8-.2 1.5-.6 2.1-.3.5-.8 1-1.3 1.3-.5.4-1.1.6-1.7.8-1.9.4-3.6.2-5.2-.5-.7-.3-1.3-.7-1.9-1.1l-.4.4z"/></g><g fill="#535454"><path d="M104.3 73.4v.4s0 .1-.1.1h-4.199999999999999c-.1 0-.2 0-.3-.1-.1-.1-.1-.2-.1-.4v-8.799999999999999l.1-.1h1s.1 0 .1.1v8.2h3.5l.1.1v.2c-.1.1-.1.2-.1.3zM111.4 73.4v.2c0 .1 0 .1-.1.2l-.1.1h-4.6c-.1 0-.2 0-.3-.1-.1-.1-.1-.2-.1-.4v-8.3c0-.2 0-.3.1-.4.1-.1.2-.1.3-.1h4.5l.1.1v.8s0 .1-.1.1h-3.8000000000000003v2.9h3.2l.1.1v.8s0 .1-.1.1h-3.2v3.3h3.8000000000000003s.1 0 .1.1c0 0 0 .1.1.2s.1.2.1.3zM122.9 71.3c0 .4-.1.8-.2 1.2-.2.3-.4.6-.7.9-.3.2-.6.4-1 .5-.4.1-.8.2-1.3.2-.3 0-.6 0-.9-.1-.3-.1-.5-.1-.7-.2-.2-.1-.4-.2-.5-.2-.1-.1-.2-.2-.3-.2s-.1-.1-.1-.2v-.8999999999999999s0-.1.1-.1h.1c.1 0 .2 0 .3.1.1.1.3.2.5.3.2.1.4.2.7.3.3.1.6.1.9.1.3 0 .5 0 .7-.1l.6-.3c.2-.1.3-.3.4-.5.1-.2.1-.4.1-.7 0-.3-.1-.5-.2-.7-.1-.2-.3-.4-.5-.5-.2-.1-.4-.3-.7-.4-.3-.1-.5-.2-.8-.4l-.8-.4c-.3-.1-.5-.3-.7-.5-.2-.2-.4-.4-.5-.7-.1-.3-.2-.6-.2-1s.1-.7.2-1c.1-.3.3-.6.6-.8.3-.2.6-.4.9-.5.3-.1.7-.2 1.1-.2.2 0 .4 0 .6.1l.6.1c.2.1.4.1.5.2l.3.2.1.1v.8s0 .1-.1.1h-.1c-.1 0-.1 0-.2-.1l-.4-.2c-.2-.1-.4-.2-.6-.2-.2-.1-.5-.1-.8-.1-.3 0-.5 0-.7.1-.2.1-.4.2-.5.3s-.2.3-.3.4c-.1.2-.1.3-.1.5 0 .3.1.5.2.7.1.2.3.4.5.5.2.1.4.3.7.4.3.1.5.2.8.4l.8.4c.3.1.5.3.7.5.2.2.4.4.5.7.4.4.4.7.4 1.1zM126.5 73.7v.1l-.1.1h-1s-.1 0-.1-.1v-9.2l.1-.1h1s.1 0 .1.1v9.1zM135.4 65.1v.4s0 .1-.1.1h-2.7v8.2l-.1.1h-1s-.1 0-.1-.1v-8.2h-2.7s-.1 0-.1-.1v-.8s0-.1.1-.1h6.699999999999999l.1.1v.2c-.1 0-.1.1-.1.2zM142.6 73.4v.2s0 .1-.1.2l-.1.1h-4.6c-.1 0-.2 0-.3-.1-.1-.1-.1-.2-.1-.4v-8.3c0-.2 0-.3.1-.4.1-.1.2-.1.3-.1h4.5l.1.1v.8s0 .1-.1.1h-3.8000000000000003v2.9h3.2l.1.1v.8s0 .1-.1.1h-3.2v3.3h3.8000000000000003s.1 0 .1.1c0 0 0 .1.1.2s.1.2.1.3zM154.8 67.3c0 .5-.1.9-.2 1.3-.2.4-.4.7-.7 1s-.6.5-1.1.6c-.4.1-.9.2-1.5.2h-1.1v3.5l-.1.1h-1s-.1 0-.1-.1v-8.7c0-.2.1-.3.2-.4.1-.1.2-.1.3-.1h2.6c.2 0 .4.1.7.1l.8.3s.5.3.7.6c.2.2.3.5.4.8.1.1.1.4.1.8zm-1.3.1c0-.4-.1-.7-.2-1-.1-.3-.3-.4-.5-.6-.2-.1-.4-.2-.7-.2-.2 0-.4-.1-.7-.1h-1.1v3.8h1.1c.4 0 .7 0 .9-.1.2-.1.5-.2.6-.4.2-.2.3-.4.4-.6.1-.3.2-.5.2-.8zM162.5 73.4v.2s0 .1-.1.2l-.1.1h-4.6c-.1 0-.2 0-.3-.1-.1-.1-.1-.2-.1-.4v-8.3c0-.2 0-.3.1-.4.1-.1.2-.1.3-.1h4.5l.1.1v.8s0 .1-.1.1h-3.8000000000000003v2.9h3.2l.1.1v.8s0 .1-.1.1h-3.2v3.3h3.8000000000000003s.1 0 .1.1c0 0 0 .1.1.2s.1.2.1.3zm-1.5-11.9l.2-.2.2-.1h1.1l.2.1s.1.1 0 .1l-.1.2-2.1 1.9c-.1.1-.1.1-.2.1l-.2.1h-.8c-.1 0-.1 0-.2-.1v-.1s0-.1.1-.2l1.8-1.8zM172.2 69.1c0 .8-.1 1.5-.3 2.1-.2.6-.5 1.1-.9 1.5-.4.4-.9.7-1.5.9-.6.2-1.3.3-2.1.3h-2c-.1 0-.2 0-.3-.1-.1-.1-.1-.2-.1-.4v-8.3c0-.2 0-.3.1-.4.1-.1.2-.1.3-.1h2.1c.8 0 1.5.1 2.1.3.6.2 1 .5 1.4.9.4.4.7.9.9 1.4.3.6.3 1.2.3 1.9zm-1.3 0c0-.5-.1-1-.2-1.4-.1-.4-.3-.8-.6-1.1-.3-.3-.6-.6-1-.7-.4-.2-.9-.3-1.6-.3h-1.3v7.3h1.3c.6 0 1.1-.1 1.5-.2.4-.1.8-.4 1-.7.3-.3.5-.7.6-1.2.3-.5.3-1 .3-1.7zM181.5 73.5l.1.3c0 .1 0 .1-.1.1 0 0-.1.1-.2.1h-1s-.1 0-.1-.1c0 0 0-.1-.1-.1l-.8-2.3h-3.9l-.8 2.2s0 .1-.1.1l-.1.1h-.8c-.1 0-.2 0-.2-.1l-.1-.1c0-.1 0-.2.1-.3l3.1-8.7c0-.1 0-.1.1-.1l.1-.1h1.2c.1 0 .1 0 .1.1l.1.1 3.4 8.8zm-4-7.7l-1.6 4.7h3.3l-1.7-4.7zM190.6 65.8v.4s0 .1-.1.1h-.1c-.1 0-.2 0-.3-.1-.1-.1-.3-.2-.5-.3-.2-.1-.5-.2-.8-.3-.3-.1-.7-.1-1.1-.1-.5 0-1 .1-1.4.3-.4.2-.8.4-1 .8-.3.3-.5.7-.7 1.2-.2.5-.2 1-.2 1.5 0 .6.1 1.1.2 1.6.2.5.4.9.7 1.2.3.3.6.6 1.1.7.4.2.9.2 1.3.2.3 0 .6 0 .9-.1.3-.1.6-.2.8-.3v-2.7h-2.2c-.1 0-.1 0-.2-.1 0-.1-.1-.2-.1-.4v-.4s0-.1.1-.1h3.3000000000000003c.1 0 .1 0 .1.1 0 0 .1.1.1.2v3.8000000000000003c0 .1 0 .2-.1.3 0 .1-.1.2-.3.2-.1.1-.3.1-.5.2s-.5.2-.7.2c-.2.1-.5.1-.7.1h-.7c-.7 0-1.4-.1-1.9-.3s-1-.5-1.4-1c-.4-.4-.7-.9-.9-1.5s-.3-1.2-.3-1.9.1-1.4.3-2c.2-.6.5-1.1.9-1.5.4-.4.9-.8 1.5-1 .6-.2 1.2-.4 1.9-.4.4 0 .7 0 1 .1.3.1.6.1.8.2l.6.3c.2.1.3.2.3.2.1.1.1.1.1.2.1.1.2.3.2.4zM201.3 69.1c0 .8-.1 1.4-.3 2-.2.6-.4 1.1-.8 1.6-.4.4-.8.8-1.3 1-.5.2-1.2.3-1.9.3s-1.3-.1-1.8-.3c-.5-.2-.9-.5-1.3-.9-.3-.4-.6-.9-.7-1.5-.2-.6-.2-1.3-.2-2s.1-1.4.3-2c.2-.6.4-1.1.8-1.5.4-.4.8-.7 1.3-1 .5-.2 1.2-.3 1.9-.3s1.3.1 1.8.3c.5.2.9.5 1.3.9.3.4.6.9.8 1.5 0 .5.1 1.2.1 1.9zm-1.3.1c0-.5 0-1-.1-1.5s-.3-.9-.5-1.2c-.2-.3-.5-.6-.9-.8-.4-.2-.8-.3-1.4-.3-.5 0-1 .1-1.4.3-.4.2-.7.5-.9.8-.2.3-.4.7-.5 1.2-.1.5-.1.9-.1 1.4 0 .5 0 1.1.1 1.5.1.5.2.9.5 1.2.2.3.5.6.9.8.4.2.8.3 1.4.3.5 0 1-.1 1.4-.3.4-.2.7-.5.9-.8.2-.3.4-.7.5-1.2 0-.4.1-.9.1-1.4zM210.8 65.8v.4s0 .1-.1.1h-.1c-.1 0-.2 0-.3-.1-.1-.1-.3-.2-.5-.3-.2-.1-.5-.2-.8-.3-.3-.1-.7-.1-1.1-.1-.5 0-1 .1-1.4.3-.4.2-.8.4-1 .8-.3.3-.5.7-.7 1.2-.2.5-.2 1-.2 1.5 0 .6.1 1.1.2 1.6.2.5.4.9.7 1.2.3.3.6.6 1.1.7.4.2.9.2 1.3.2.3 0 .6 0 .9-.1.3-.1.6-.2.8-.3v-2.7h-2.2c-.1 0-.1 0-.2-.1s-.1-.2-.1-.4v-.4s0-.1.1-.1h3.3000000000000003c.1 0 .1 0 .1.1 0 0 .1.1.1.2v3.8000000000000003c0 .1 0 .2-.1.3 0 .1-.1.2-.3.2-.1.1-.3.1-.5.2s-.5.2-.7.2c-.2.1-.5.1-.7.1h-.7c-.7 0-1.4-.1-1.9-.3s-1-.5-1.4-1c-.4-.4-.7-.9-.9-1.5-.2-.6-.3-1.2-.3-1.9s.1-1.4.3-2c.2-.6.5-1.1.9-1.5.4-.4.9-.8 1.5-1 .6-.2 1.2-.4 1.9-.4.4 0 .7 0 1 .1.3.1.6.1.8.2l.6.3c.2.1.3.2.3.2.1.1.1.1.1.2.2.1.2.3.2.4zM214.9 73.7v.1l-.1.1h-1s-.1 0-.1-.1v-9.2l.1-.1h1s.1 0 .1.1v9.1zM227 74.7v.3c0 .1 0 .1-.1.2l-.1.1h-.1c-.1 0-.3 0-.5-.1l-.7-.3c-.3-.2-.6-.3-.9-.6-.3-.2-.6-.5-.9-.8-.2.1-.5.3-.9.4-.4.1-.8.2-1.3.2-.7 0-1.3-.1-1.8-.3-.5-.2-.9-.5-1.3-.9-.3-.4-.6-.9-.7-1.5-.2-.6-.2-1.3-.2-2s.1-1.4.3-2c.2-.6.4-1.1.8-1.5.4-.4.8-.7 1.3-1 .5-.2 1.2-.3 1.9-.3s1.3.1 1.8.3c.5.2.9.5 1.3.9.3.4.6.9.8 1.5.2.6.3 1.3.3 2 0 .4 0 .8-.1 1.1 0 .4-.1.7-.2 1-.1.3-.2.6-.4.9-.1.3-.3.5-.5.7.4.3.7.5.9.7.3.2.5.3.7.4.2.1.3.1.4.2.1 0 .2.1.2.1s.1.1.1.2c-.1-.1-.1 0-.1.1zm-2.5-5.5c0-.5 0-1-.1-1.5s-.3-.8-.5-1.2c-.2-.3-.5-.6-.9-.8-.4-.2-.8-.3-1.4-.3-.5 0-1 .1-1.4.3-.4.2-.7.5-.9.8-.2.3-.4.7-.5 1.2-.1.4-.1.9-.1 1.4 0 .5 0 1.1.1 1.5.1.5.2.9.5 1.2.2.3.5.6.9.8.4.2.8.3 1.4.3.5 0 1-.1 1.4-.3s.7-.5.9-.8c.2-.3.4-.7.5-1.2.1-.4.1-.9.1-1.4zM235.6 70.4c0 .6-.1 1.1-.2 1.5s-.4.8-.7 1.1c-.3.3-.7.5-1.1.7-.6.3-1.1.3-1.6.3s-1-.1-1.4-.2c-.4-.1-.8-.4-1.1-.7-.3-.3-.5-.7-.7-1.1s-.2-.9-.2-1.5v-5.8999999999999995l.1-.1h1s.1 0 .1.1v5.8c0 .4.1.8.2 1.1.1.3.3.6.5.8.2.2.4.4.7.5.3.1.6.2 1 .2s.7-.1 1-.2c.3-.1.5-.3.7-.5.2-.2.3-.5.4-.8.1-.3.2-.7.2-1.1v-5.8l.1-.1h1s.1 0 .1.1v5.8zM243.8 73.4v.2c0 .1 0 .1-.1.2l-.1.1h-4.6c-.1 0-.2 0-.3-.1-.1-.1-.1-.2-.1-.4v-8.3c0-.2 0-.3.1-.4.1-.1.2-.1.3-.1h4.5l.1.1v.8s0 .1-.1.1h-3.8000000000000003v2.9h3.2l.1.1v.8s0 .1-.1.1h-3.2v3.3h3.8000000000000003s.1 0 .1.1 0 .1.1.2.1.2.1.3zM255.3 71.3c0 .4-.1.8-.2 1.2-.2.3-.4.6-.7.9-.3.2-.6.4-1 .5-.4.1-.8.2-1.3.2-.3 0-.6 0-.9-.1-.3-.1-.5-.1-.7-.2-.2-.1-.4-.2-.5-.2-.1-.1-.2-.2-.3-.2-.1-.1-.1-.1-.1-.2v-.8999999999999999s0-.1.1-.1h.1c.1 0 .2 0 .3.1.1.1.3.2.5.3.2.1.4.2.7.3.3.1.6.1.9.1.3 0 .5 0 .7-.1l.6-.3c.2-.1.3-.3.4-.5.1-.2.1-.4.1-.7 0-.3-.1-.5-.2-.7-.1-.2-.3-.4-.5-.5-.2-.1-.4-.3-.7-.4-.3-.1-.5-.2-.8-.4l-.8-.4c-.3-.1-.5-.3-.7-.5-.2-.2-.4-.4-.5-.7-.1-.3-.2-.6-.2-1s.1-.7.2-1c.1-.3.3-.6.6-.8.3-.2.6-.4.9-.5.3-.1.7-.2 1.1-.2.2 0 .4 0 .6.1l.6.1c.2.1.4.1.5.2l.3.2.1.1v.8s0 .1-.1.1h-.1c-.1 0-.1 0-.2-.1l-.4-.2c-.2-.1-.4-.2-.6-.2-.2-.1-.5-.1-.8-.1-.3 0-.5 0-.7.1-.2.1-.4.2-.5.3l-.3.4c-.1.2-.1.3-.1.5 0 .3.1.5.2.7.1.2.3.4.5.5.2.1.4.3.7.4s.5.2.8.4l.8.4c.3.1.5.3.7.5.2.2.4.4.5.7.3.4.4.7.4 1.1zM264.7 70.4c0 .6-.1 1.1-.2 1.5-.2.4-.4.8-.7 1.1-.3.3-.7.5-1.1.7-.4.2-.9.2-1.5.2-.5 0-1-.1-1.4-.2-.4-.1-.8-.4-1.1-.7-.3-.3-.5-.7-.7-1.1-.2-.4-.2-.9-.2-1.5v-5.8999999999999995l.1-.1h1s.1 0 .1.1v5.8c0 .4.1.8.2 1.1.1.3.3.6.5.8.2.2.4.4.7.5.3.1.6.2 1 .2s.7-.1 1-.2c.3-.1.5-.3.7-.5.2-.2.3-.5.4-.8s.2-.7.2-1.1v-5.8l.1-.1h1s.1 0 .1.1v5.8999999999999995zM273.9 73.7v.1s0 .1-.1.1h-1l-.1-.1s0-.1-.1-.1l-.9-2.2c-.1-.3-.2-.5-.3-.7-.1-.2-.2-.4-.4-.5-.1-.2-.3-.3-.5-.4-.2-.1-.4-.1-.7-.1h-.8v4.1l-.1.1h-1s-.1 0-.1-.1v-8.799999999999999c0-.2 0-.3.1-.4.1-.1.2-.1.3-.1h3c.4.1.7.2 1 .3.3.1.5.3.7.5.2.2.3.4.4.7.1.3.1.6.1.9 0 .3 0 .6-.1.8-.1.2-.2.5-.4.7-.2.2-.3.4-.6.5l-.7.4c.2.1.3.2.4.3l.4.4c.1.1.2.3.3.5l.3.6.8 2.1c.1.2.1.3.1.4zm-1.8-6.6c0-.4-.1-.7-.2-.9-.2-.3-.4-.4-.8-.5l-.4-.1h-1.6v3.2h1.2c.3 0 .6 0 .8-.1l.6-.3c.2-.1.3-.3.4-.5-.1-.3 0-.5 0-.8zM285.1 73.4v.4s0 .1-.1.1h-4.199999999999999c-.1 0-.2 0-.3-.1-.1-.1-.1-.2-.1-.4v-8.799999999999999l.1-.1h1s.1 0 .1.1v8.2h3.5l.1.1v.2c-.1.1-.1.2-.1.3zM284.8 74h-4.1c-.1 0-.3 0-.4-.1-.1-.1-.2-.3-.2-.5v-8.899999999999999c0-.1.1-.1.2-.1h1l.2.1.1.2v8h3.2c.1 0 .1 0 .2.1l.1.1c0 .1 0 .1.1.2v.6c0 .1 0 .1-.1.2 0 .1-.1.1-.1.1h-.2zm-4-9.4h-.5v8.7c0 .1 0 .2.1.3.1.1.2.1.2.1h4.1v-.8h-3.5v-8.2h-.2c0-.1-.1-.1-.2-.1zM287.4 64.4v.4c0 .1 0 .2-.1.4l-.1.3-.2.3-1 1.5-.1.1-.1.1h-.7000000000000001v-.2l1-2v-1.2l.1-.2.2-.1h.6c.1 0 .2 0 .2.1.1 0 .1.1.1.2.1 0 .1.2.1.3zM285.4 67.6h-.2c-.1 0-.1 0-.2-.1-.1 0-.1-.1-.1-.2v-.2l1-2v-1.2c0-.1.1-.2.2-.2.1-.1.2-.1.3-.1h.7l.3.1.2.2v.7c0 .1 0 .3-.1.4 0 .1-.1.2-.1.4-.1.1-.1.2-.2.4l-1 1.5-.1.1s-.1.1-.2.1h-.2c-.2.1-.2.1-.3.1zm-.3-.2h.7l.1-.1 1-1.5.2-.3c.1-.1.1-.2.1-.3l.1-.3v-.7c0-.1 0-.1-.1-.1s-.1-.1-.2-.1h-.6c-.1 0-.1 0-.2.1l-.1.1v1.3l-1 1.9zM295.3 73.5l.1.3c0 .1 0 .1-.1.1 0 0-.1.1-.2.1h-1s-.1 0-.1-.1c0 0 0-.1-.1-.1l-.8-2.3h-3.9l-.8 2.2s0 .1-.1.1l-.1.1h-.8c-.1 0-.2 0-.2-.1l-.1-.1c0-.1 0-.2.1-.3l3.1-8.7c0-.1 0-.1.1-.1l.1-.1h1.2c.1 0 .1 0 .1.1l.1.1 3.4 8.8zm-4-7.7l-1.6 4.7h3.3l-1.7-4.7zM294.8 74.1h-.6000000000000001l-.2-.1-.1-.1-.8-2.2h-3.7l-.7 2.2c0 .1 0 .1-.1.1l-.1.1c-.1 0-.1 0-.2.1h-.7c-.1 0-.2 0-.3-.1 0 0-.1-.1-.1-.2s0-.2.1-.3l3.1-8.7.1-.2s.1-.1.2-.1h1.4000000000000001l.2.1.1.2 3.1 8.7.1.3c0 .1-.1.2-.1.2-.1.1-.1.1-.3.1-.2-.1-.3-.1-.4-.1zm-5.5-2.8h4.1l.8 2.4v.1h.9v-.1s0-.1-.1-.2l-3.1-8.7s0-.1-.1-.1c0 0-.1 0-.1-.1h-1.2s0 .1-.1.1l-3.1 8.7c0 .1-.1.2-.1.2v.1h.9999999999999999v-.1l1.1-2.3zm3.8-.7h-3.6l1.7-4.9h.2l1.7 4.9zm-3.3-.3h2.9l-1.5-4.2-1.4 4.2zM303.7 73.7v.1s0 .1-.1.1h-1l-.1-.1s0-.1-.1-.1l-.9-2.2c-.1-.3-.2-.5-.3-.7-.1-.2-.2-.4-.4-.5-.1-.2-.3-.3-.5-.4-.2-.1-.4-.1-.7-.1h-.8v4.1l-.1.1h-1s-.1 0-.1-.1v-8.799999999999999c0-.2 0-.3.1-.4.1-.1.2-.1.3-.1h3c.4.1.7.2 1 .3.3.1.5.3.7.5.2.2.3.4.4.7.1.3.1.6.1.9 0 .3 0 .6-.1.8-.1.2-.2.5-.4.7-.2.2-.3.4-.6.5l-.7.4c.2.1.3.2.4.3l.4.4c.1.1.2.3.3.5l.3.6.8 2.1c.1.2.1.3.1.4zm-1.9-6.6c0-.4-.1-.7-.2-.9-.2-.3-.4-.4-.8-.5l-.4-.1h-1.6v3.2h1.2c.3 0 .6 0 .8-.1l.6-.3c.2-.1.3-.3.4-.5-.1-.3 0-.5 0-.8zM303 74.1h-.3c-.1 0-.2 0-.2-.1l-.2-.1-.1-.2-.9-2.2c-.1-.3-.2-.5-.3-.7-.1-.2-.2-.4-.4-.5-.1-.1-.3-.3-.5-.3-.2-.1-.4-.1-.7-.1h-.7v3.9c0 .1 0 .1-.1.2 0 0-.1.1-.2.1h-1l-.2-.1v-8.899999999999999c0-.2.1-.4.2-.5.1-.1.2-.1.4-.1h3c.4.1.7.2 1 .3.3.1.5.3.7.5.2.2.3.5.4.8.1.3.1.6.1.9 0 .3 0 .6-.1.9-.1.3-.2.5-.4.7-.2.2-.4.4-.6.5l-.5.3.2.1c.1.1.3.2.4.4.1.1.2.3.3.5l.3.6.8 2.1c.1.2.1.3.1.4v.4c0 .1-.1.1-.2.1s-.1 0-.2.1h-.1zm-4.5-4.5h1c.3 0 .6 0 .8.1.2.1.4.2.6.4.2.2.3.4.4.6.1.2.2.4.3.7l.9 2.2c0 .1 0 .1.1.1h1.1v-.1c0-.1-.1-.2-.1-.4l-.8-2.1-.3-.6-.3-.5-.3-.4c-.1-.1-.2-.2-.4-.2l-.3-.1.3-.1c.3-.1.5-.2.7-.3.2-.1.4-.3.5-.5.1-.2.3-.4.3-.6.1-.2.1-.5.1-.8 0-.3 0-.6-.1-.8-.1-.3-.2-.5-.4-.7-.2-.2-.4-.4-.7-.5l-.9-.3h-3c-.1 0-.2 0-.2.1-.1.1-.1.2-.1.3v8.7h1v-4.2zm1.4-.8h-1.3v-3.4h1.7999999999999998s.3 0 .4.1c.4.1.7.3.9.6.2.3.3.6.3 1 0 .2 0 .5-.1.7-.1.2-.2.4-.4.5-.2.2-.4.3-.6.4-.4.1-.7.1-1 .1zm-1.1-.2h1.1c.3 0 .6 0 .8-.1l.6-.3c.1-.1.3-.3.3-.5.1-.2.1-.4.1-.6 0-.3-.1-.6-.2-.9-.1-.2-.4-.4-.8-.5-.1 0-.2-.1-.4-.1h-1.5v3zM312.9 65.8v.4s0 .1-.1.1h-.1c-.1 0-.2 0-.3-.1-.1-.1-.3-.2-.5-.3-.2-.1-.5-.2-.8-.3-.3-.1-.7-.1-1.1-.1-.5 0-1 .1-1.4.3-.4.2-.8.4-1 .8-.3.3-.5.7-.7 1.2-.2.5-.2 1-.2 1.5 0 .6.1 1.1.2 1.6.2.5.4.9.7 1.2.3.3.6.6 1.1.7.4.2.9.2 1.3.2.3 0 .6 0 .9-.1.3-.1.6-.2.8-.3v-2.7h-2.2c-.1 0-.1 0-.2-.1s-.1-.2-.1-.4v-.4s0-.1.1-.1h3.3000000000000003c.1 0 .1 0 .1.1 0 0 .1.1.1.2v3.8000000000000003c0 .1 0 .2-.1.3 0 .1-.1.2-.3.2-.1.1-.3.1-.5.2s-.5.2-.7.2c-.2.1-.5.1-.7.1h-.7c-.7 0-1.4-.1-1.9-.3-.6-.2-1.1-.5-1.4-1-.4-.4-.7-.9-.9-1.5-.2-.6-.3-1.2-.3-1.9s.1-1.4.3-2c.2-.6.5-1.1.9-1.5.4-.4.9-.8 1.5-1 .6-.2 1.2-.4 1.9-.4.4 0 .7 0 1 .1.3.1.6.1.8.2l.6.3c.2.1.3.2.3.2.1.1.1.1.1.2.2.1.2.3.2.4zM309.9 74.2c-.7 0-1.4-.1-2-.3-.6-.2-1.1-.6-1.5-1-.4-.4-.7-.9-.9-1.5-.2-.6-.3-1.3-.3-2 0-.8.1-1.4.3-2.1.2-.6.6-1.1 1-1.6.4-.4.9-.8 1.5-1 .6-.2 1.2-.4 1.9-.4.4 0 .7 0 1 .1l.9.2c.2.1.5.2.6.3.2.1.3.2.4.3l.2.3v.7c0 .1 0 .1-.1.2l-.1.2c-.1.1-.2.1-.5-.1-.1-.1-.3-.2-.5-.3-.2-.1-.5-.2-.8-.3-.3-.1-.7-.1-1.1-.1-.5 0-.9.1-1.3.3-.4.2-.7.4-1 .7-.3.3-.5.7-.6 1.1-.1.4-.2.9-.2 1.5s.1 1.1.2 1.6c.2.4.4.8.7 1.1.3.3.6.5 1 .7.6.3 1.4.3 2.1.1.3-.1.5-.2.7-.3v-2.5h-2c-.1 0-.2-.1-.3-.2-.1-.1-.1-.2-.1-.4v-.3c0-.1 0-.1.1-.2 0-.1.1-.1.1-.1l.2-.1h3.2l.2.1c.1.1.1.1.1.2v3.9c0 .1 0 .3-.1.4l-.3.3c-.1.1-.3.1-.6.2-.2.1-.5.2-.7.2-.2.1-.5.1-.7.1-.2-.1-.5 0-.7 0zm0-9.7c-.7 0-1.3.1-1.9.3-.6.2-1 .6-1.4 1-.4.4-.7.9-.9 1.5-.2.6-.3 1.2-.3 2 0 .7.1 1.3.3 1.9.2.6.5 1 .9 1.4.4.4.8.7 1.4.9.7.3 1.6.4 2.6.3l.7-.1.7-.2c.2-.1.4-.2.5-.2.1-.1.2-.1.2-.2l.1-.3v-3.8000000000000003s0-.1-.1-.1c0 0-.1 0-.1-.1h-3.1v.6000000000000001c0 .1.1.1.1.1h2.3v2.9h-.1c-.3.1-.6.3-.9.3-.8.2-1.6.1-2.3-.1-.4-.2-.8-.4-1.1-.8-.3-.3-.5-.7-.7-1.2-.2-.5-.3-1-.3-1.6 0-.5.1-1.1.2-1.5.2-.5.4-.9.7-1.2.3-.3.7-.6 1.1-.8.4-.2.9-.3 1.4-.3.4 0 .8 0 1.2.1.3.1.6.2.8.3l.6.3.2.1.1-.1v-.6000000000000001l-.1-.2-.3-.2-.6-.3c-.2-.1-.5-.2-.8-.2-.4.2-.7.1-1.1.1zM321 73.4v.2c0 .1 0 .1-.1.2l-.1.1h-4.6c-.1 0-.2 0-.3-.1-.1-.1-.1-.2-.1-.4v-8.3c0-.2 0-.3.1-.4.1-.1.2-.1.3-.1h4.5l.1.1v.8s0 .1-.1.1h-3.7v2.9h3.2l.1.1v.8s0 .1-.1.1h-3.2v3.3h3.8000000000000003s.1 0 .1.1c0 0 0 .1.1.2v.3zM320.7 74h-4.5c-.1 0-.3 0-.4-.1-.1-.1-.2-.3-.2-.5v-8.3c0-.2.1-.4.2-.5.1-.1.2-.1.4-.1h4.6000000000000005c.1 0 .1.1.1.1 0 .1 0 .1.1.2v.5c0 .1 0 .1-.1.2 0 .1-.1.1-.1.1h-3.7v2.7h3c.1 0 .1 0 .2.1l.1.1c0 .1 0 .1.1.2v.5c0 .1 0 .1-.1.2 0 .1-.1.1-.1.1h-3.2v3.1h3.8000000000000003l.1.1.1.2v.5c0 .1 0 .1-.1.2 0 .1-.1.1-.1.1 0 .3-.1.3-.2.3zm-4.5-9.3c-.1 0-.2 0-.2.1-.1.1-.1.2-.1.3v8.3c0 .1 0 .2.1.3.1.1.2.1.2.1h4.5v-.7000000000000001h-3.8v-3.6h3.3v-.7h-3.3v-3.2h3.8v-.6h-4.5zM330.6 73.4v.2l-.1.2-.2.1h-.9000000000000001l-.3-.1-.3-.3c-.1-.1-.2-.3-.3-.5l-2.9-5.3c-.1-.3-.3-.6-.5-.9-.2-.3-.3-.6-.4-.9v7.8999999999999995l-.1.1h-1s-.1 0-.1-.1v-8.7c0-.2.1-.3.2-.4.1-.1.2-.1.4-.1h1l.3.1c.1.1.2.1.2.2.1.1.1.2.2.4l2.2 4.1c.1.3.3.5.4.7.1.2.2.5.4.7l.3.7c.1.2.2.4.3.7v-7.6l.1-.1h1s.1 0 .1.1v8.799999999999999zM324.2 74.1h-.5l-.2-.1v-8.799999999999999c0-.2.1-.4.2-.5.1-.1.3-.1.4-.1h1l.3.1.3.3c.1.1.2.2.2.4l2.2 4.1c.1.3.3.5.4.7.1.2.2.5.4.7l.3.7.1.2v-7c0-.1 0-.1.1-.2 0 0 .1-.1.2-.1s.1 0 .2-.1h.6c.1 0 .2 0 .2.1.1 0 .1.1.1.1s.1.1.1.2v8.6c0 .1 0 .2-.1.3 0 .1-.1.2-.2.2-.1.1-.1.1-.2.1h-1c-.1 0-.2-.1-.3-.2l-.3-.3c-.1-.1-.2-.3-.3-.5l-2.9-5.3c-.1-.3-.3-.6-.5-.9l-.2-.4v7.199999999999999c0 .1 0 .1-.1.2 0 .1-.1.1-.2.1h-.2c.1.2 0 .2-.1.2zm-.1-9.4c-.1 0-.2 0-.3.1-.1.1-.1.2-.1.3v8.6h1v-7.899999999999999h.2v.1l.4.9.5.9 2.9 5.3c.1.2.2.3.3.4.1.1.2.2.2.3.1.1.2.1.2.1h.8999999999999999s.1 0 .1-.1l.1-.1v-8.799999999999999l-.1-.1h-1.1v7.6h-.2v-.1l-.3-.7-.3-.7c-.1-.2-.2-.5-.4-.7l-.4-.7-2.2-4.1-.2-.4c-.1-.1-.1-.2-.2-.2l-.2-.1h-.8zM339.6 65.1v.4s0 .1-.1.1h-2.7v8.2l-.1.1h-1s-.1 0-.1-.1v-8.2h-2.7s-.1 0-.1-.1v-.8s0-.1.1-.1h6.699999999999999l.1.1v.2c-.1 0-.1.1-.1.2zM336.1 74.1h-.5l-.2-.1v-8.2h-2.7c-.1 0-.1-.1-.1-.1 0-.1 0-.1-.1-.2v-.6c0-.1 0-.1.1-.2 0-.1.1-.1.1-.1h6.9c.1 0 .1.1.1.1 0 .1 0 .1.1.2v.6c0 .1 0 .2-.1.2 0 .1-.1.1-.1.1h-2.7v8.2c0 .1-.1.1-.2.1h-.6000000000000001zm-3.3-9.4c-.1.1-.1.1-.1.2v.5h2.8v8.2h1v-8.2h2.8v-.6h-6.5zM350.6 73.4v.2c0 .1 0 .1-.1.2l-.1.1h-4.6c-.1 0-.2 0-.3-.1-.1-.1-.1-.2-.1-.4v-8.3c0-.2 0-.3.1-.4.1-.1.2-.1.3-.1h4.5l.1.1v.8s0 .1-.1.1h-3.8000000000000003v2.9h3.2l.1.1v.8s0 .1-.1.1h-3.2v3.3h3.8000000000000003s.1 0 .1.1c0 0 0 .1.1.2s.1.2.1.3zM359 65.1v.4s0 .1-.1.1h-2.7v8.2l-.1.1h-1s-.1 0-.1-.1v-8.2h-2.7s-.1 0-.1-.1v-.8s0-.1.1-.1h6.699999999999999l.1.1v.2c-.1 0-.1.1-.1.2zM369.7 73.4v.4s0 .1-.1.1h-4.199999999999999c-.1 0-.2 0-.3-.1-.1-.1-.1-.2-.1-.4v-8.799999999999999l.1-.1h1s.1 0 .1.1v8.2h3.5l.1.1v.2c-.1.1-.1.2-.1.3zM369.5 74h-4.1c-.1 0-.3 0-.4-.1-.1-.1-.2-.3-.2-.5v-8.899999999999999c0-.1.1-.1.2-.1h1l.2.1.1.2v8h3.2c.1 0 .1 0 .2.1l.1.1c0 .1 0 .1.1.2v.6c0 .1 0 .1-.1.2 0 .1-.1.1-.1.1h-.2zm-4-9.4h-.5v8.7c0 .1 0 .2.1.3.1.1.2.1.2.1h4.1v-.8h-3.4v-8.2h-.2c-.1-.1-.2-.1-.3-.1zM378.6 73.5l.1.3c0 .1 0 .1-.1.1 0 0-.1.1-.2.1h-1s-.1 0-.1-.1c0 0 0-.1-.1-.1l-.8-2.3h-3.9l-.8 2.2s0 .1-.1.1l-.1.1h-.8c-.1 0-.2 0-.2-.1l-.1-.1c0-.1 0-.2.1-.3l3.1-8.7c0-.1 0-.1.1-.1l.1-.1h1.2c.1 0 .1 0 .1.1l.1.1 3.4 8.8zm-4-7.7l-1.6 4.7h3.3l-1.7-4.7zM378.1 74.1h-.6000000000000001l-.2-.1-.1-.1-.8-2.2h-3.7l-.7 2.2c0 .1 0 .1-.1.1l-.1.1c-.1 0-.1 0-.2.1h-.7c-.1 0-.2 0-.3-.1 0 0-.1-.1-.1-.2s0-.2.1-.3l3.1-8.7.1-.2s.1-.1.2-.1h1.4000000000000001l.2.1.1.2 3.1 8.7.1.3c0 .1-.1.2-.1.2-.1.1-.1.1-.3.1-.1-.1-.2-.1-.4-.1zm-5.5-2.8h4.1l.8 2.4v.1h.9v-.1s0-.1-.1-.2l-3.1-8.7s0-.1-.1-.1c0 0-.1 0-.1-.1h-1.2s0 .1-.1.1l-3.1 8.7c0 .1-.1.2-.1.2v.1h.9999999999999999v-.1l1.1-2.3zm3.8-.7h-3.6l1.7-4.9h.2l1.7 4.9zm-3.2-.3h2.9l-1.5-4.2-1.4 4.2zM389.6 65.1v.2c0 .1 0 .1-.1.2l-.1.1h-3.5v3.2h3.3000000000000003s.1 0 .1.1c0 0 0 .1.1.2v.4c0 .1 0 .1-.1.2l-.1.1h-3.3000000000000003v4l-.1.1h-1s-.1 0-.1-.1v-8.799999999999999c0-.2 0-.3.1-.4.1-.1.2-.1.3-.1h4.3l.1.1s0 .1.1.2v.3zM385.3 74.1h-.5l-.2-.1v-8.899999999999999c0-.2.1-.4.2-.5.1-.1.2-.1.4-.1h4.4c.1 0 .1.1.1.1l.1.2v.6c0 .1 0 .2-.1.2 0 .1-.1.1-.1.1h-3.6v2.9h3.3000000000000003c.1 0 .1.1.1.1l.1.2v.6c0 .1 0 .1-.1.2l-.1.1-.2.1h-3.1v4c0 .1-.1.1-.2.1h-.2c-.1.1-.2.1-.3.1zm-.2-9.4c-.1 0-.2 0-.2.1-.1.1-.1.2-.1.3v8.7h1v-4h3.4v-.7000000000000001h-3.4v-3.4h3.5v-.7h-4.2zM393.3 73.7v.1l-.1.1h-1s-.1 0-.1-.1v-9.2l.1-.1h1s.1 0 .1.1v9.1zM392.7 74.1h-.5l-.2-.1v-9.2c0-.1 0-.1.1-.2 0-.1.1-.1.2-.1h1l.2.1.1.2v9.2c0 .1-.1.1-.2.1h-.7zm0-9.5h-.6v9h1v-9h-.4zM403.4 73.4v.2l-.1.2-.2.1h-.9000000000000001l-.3-.1-.3-.3c-.1-.1-.2-.3-.3-.5l-2.9-5.3c-.1-.3-.3-.6-.5-.9-.2-.3-.3-.6-.4-.9v7.8999999999999995l-.1.1h-1s-.1 0-.1-.1v-8.7c0-.2.1-.3.2-.4.1-.1.2-.1.4-.1h1l.3.1c.1.1.2.1.2.2.1.1.1.2.2.4l2.2 4.1c.1.3.3.5.4.7.1.2.2.5.4.7l.3.7c.1.2.2.4.3.7v-7.6l.1-.1h1s.1 0 .1.1v8.799999999999999zM397 74.1h-.5l-.2-.1v-8.799999999999999c0-.2.1-.4.2-.5.1-.1.3-.1.4-.1h1l.3.1.3.3c.1.1.2.2.2.4l2.2 4.1c.1.3.3.5.4.7.1.2.2.5.4.7s.2.5.3.7l.1.2v-7c0-.1 0-.1.1-.2 0 0 .1-.1.2-.1s.1 0 .2-.1h.6c.1 0 .2 0 .2.1.1 0 .1.1.1.1s.1.1.1.2v8.6c0 .1 0 .2-.1.3 0 .1-.1.2-.2.2-.1.1-.1.1-.2.1h-1c-.1 0-.2-.1-.3-.2l-.3-.3c-.1-.1-.2-.3-.3-.5l-2.9-5.3c-.1-.3-.3-.6-.5-.9l-.2-.4v7.199999999999999c0 .1 0 .1-.1.2 0 .1-.1.1-.2.1h-.2c.1.2 0 .2-.1.2zm-.1-9.4c-.1 0-.2 0-.3.1-.1.1-.1.2-.1.3v8.6h1v-7.899999999999999h.2v.1l.4.9.5.9 2.9 5.3c.1.2.2.3.3.4.1.1.2.2.2.3.1.1.2.1.2.1h.8999999999999999s.1 0 .1-.1l.1-.1v-8.799999999999999l-.1-.1h-1.1v7.6h-.2v-.1l-.3-.7-.3-.7c-.1-.2-.2-.5-.4-.7l-.4-.7-2.2-4.1-.2-.4c-.1-.1-.1-.2-.2-.2l-.2-.1h-.8zM413.5 73.5l.1.3c0 .1 0 .1-.1.1 0 0-.1.1-.2.1h-1s-.1 0-.1-.1c0 0 0-.1-.1-.1l-.8-2.3h-3.9l-.8 2.2s0 .1-.1.1l-.1.1h-.8c-.1 0-.2 0-.2-.1l-.1-.1c0-.1 0-.2.1-.3l3.1-8.7c0-.1 0-.1.1-.1l.1-.1h1.2c.1 0 .1 0 .1.1l.1.1 3.4 8.8zm-4.1-7.7l-1.6 4.7h3.3l-1.7-4.7zM412.9 74.1h-.6000000000000001l-.2-.1-.1-.1-.8-2.2h-3.7l-.7 2.2c0 .1 0 .1-.1.1l-.1.1c-.1 0-.1 0-.2.1h-.7c-.1 0-.2 0-.3-.1 0 0-.1-.1-.1-.2s0-.2.1-.3l3.1-8.7.1-.2s.1-.1.2-.1h1.4000000000000001l.2.1.1.2 3.1 8.7.1.3c0 .1-.1.2-.1.2-.1.1-.1.1-.3.1-.1-.1-.2-.1-.4-.1zm-5.5-2.8h4.1l.8 2.4v.1h.9v-.1s0-.1-.1-.2l-3.1-8.7s0-.1-.1-.1c0 0-.1 0-.1-.1h-1.2000000000000002s0 .1-.1.1l-3.1 8.7c0 .1-.1.2-.1.2v.1h.9999999999999999v-.1l1.1-2.3zm3.8-.7h-3.6l1.7-4.9h.2l1.7 4.9zm-3.2-.3h2.9l-1.5-4.2-1.4 4.2zM422.7 73.4v.2l-.1.2-.2.1h-.9000000000000001l-.3-.1-.3-.3c-.1-.1-.2-.3-.3-.5l-2.9-5.3c-.1-.3-.3-.6-.5-.9-.2-.3-.3-.6-.4-.9v7.8999999999999995l-.1.1h-1s-.1 0-.1-.1v-8.7c0-.2.1-.3.2-.4.1-.1.2-.1.4-.1h1l.3.1c.1.1.2.1.2.2.1.1.1.2.2.4l2.2 4.1c.1.3.3.5.4.7.1.2.2.5.4.7l.3.7c.1.2.2.4.3.7v-7.6l.1-.1h1s.1 0 .1.1v8.799999999999999zM416.2 74.1h-.5l-.2-.1v-8.799999999999999c0-.2.1-.4.2-.5.1-.1.3-.1.4-.1h1l.3.1.3.3c.1.1.2.2.2.4l2.2 4.1c.1.3.3.5.4.7.1.2.2.5.4.7l.3.7.1.2v-7c0-.1 0-.1.1-.2 0 0 .1-.1.2-.1s.1 0 .2-.1h.6c.1 0 .2 0 .2.1.1 0 .1.1.1.1s.1.1.1.2v8.6c0 .1 0 .2-.1.3 0 .1-.1.2-.2.2-.1.1-.1.1-.2.1h-1c-.1 0-.2-.1-.3-.2l-.3-.3c-.1-.1-.2-.3-.3-.5l-2.9-5.3c-.1-.3-.3-.6-.5-.9l-.2-.4v7.199999999999999c0 .1 0 .1-.1.2 0 .1-.1.1-.2.1h-.2c.1.2 0 .2-.1.2zm-.1-9.4c-.1 0-.2 0-.3.1-.1.1-.1.2-.1.3v8.6h1v-7.899999999999999h.2v.1l.4.9.5.9 2.9 5.3c.1.2.2.3.3.4.1.1.2.2.2.3.1.1.2.1.2.1h.8999999999999999s.1 0 .1-.1l.1-.1v-8.799999999999999l-.1-.1h-1.1v7.6h-.2v-.1l-.3-.7-.3-.7c-.1-.2-.2-.5-.4-.7l-.4-.7-2.2-4.1-.2-.4c-.1-.1-.1-.2-.2-.2l-.2-.1h-.8zM432 72.6v.5l-.1.1s-.1.1-.3.2c-.2.1-.3.2-.6.3-.2.1-.5.2-.8.2-.3.1-.6.1-1 .1-.6 0-1.2-.1-1.6-.3-.5-.2-.9-.5-1.2-.9-.3-.4-.6-.9-.8-1.5-.2-.6-.3-1.2-.3-2s.1-1.5.3-2.1c.2-.6.5-1.1.8-1.5.4-.4.8-.7 1.3-1 .5-.2 1.1-.3 1.7-.3.3 0 .5 0 .8.1.3.1.5.1.7.2l.6.3c.2.1.3.2.4.2l.1.1v.8999999999999999s0 .1-.1.1h-.1c-.1 0-.2 0-.3-.1-.1-.1-.3-.2-.5-.3-.2-.1-.4-.2-.7-.3-.3-.1-.6-.1-1-.1s-.8.1-1.1.2c-.3.2-.6.4-.9.7-.2.3-.4.7-.6 1.2-.1.5-.2 1-.2 1.6 0 .6.1 1.1.2 1.6s.3.8.6 1.1c.2.3.5.5.9.7.3.2.7.2 1.2.2.4 0 .7 0 1-.1.3-.1.5-.2.7-.3.2-.1.4-.2.5-.3s.2-.1.3-.1h.1l.1.1v.2c-.2.1-.1.2-.1.3zM429.1 74.1c-.6 0-1.2-.1-1.7-.3-.5-.2-.9-.5-1.3-.9s-.6-.9-.8-1.5c-.2-.6-.3-1.3-.3-2 0-.8.1-1.5.3-2.1.2-.6.5-1.2.9-1.6.4-.4.8-.8 1.3-1 .5-.2 1.1-.3 1.7-.3.3 0 .5 0 .8.1.3.1.5.1.7.2l.6.3c.2.1.3.2.4.3.1.1.1.1.1.2 0 0 0 .1.1.1v.7c0 .1 0 .1-.1.2 0 .1-.1.1-.1.1-.1.1-.3.1-.5-.1-.1-.1-.3-.2-.5-.3-.2-.1-.4-.2-.7-.3-.3-.1-.6-.1-.9-.1-.4 0-.8.1-1.1.2-.3.2-.6.4-.8.7-.2.3-.4.7-.5 1.1-.1.5-.2 1-.2 1.6 0 .6.1 1.1.2 1.5.1.4.3.8.5 1.1.2.3.5.5.8.7.3.1.7.2 1.1.2.4 0 .7 0 .9-.1.3-.1.5-.2.7-.3l.5-.3c.2-.2.4-.2.5-.1l.1.1v.8999999999999999c0 .1 0 .1-.1.1 0 0-.1.1-.1.2l-.3.2-.6.3c-.2.1-.5.2-.8.2h-.8zm.2-9.5c-.6 0-1.1.1-1.6.3s-.9.5-1.3.9c-.3.4-.6.9-.8 1.5-.2.6-.3 1.3-.3 2s.1 1.4.3 2c.2.6.4 1 .8 1.4.3.4.7.7 1.2.9.5.2 1 .3 1.6.3.3 0 .7 0 .9-.1l.8-.2.6-.3c.2-.1.3-.2.3-.2l.1-.1v-.7999999999999999s-.1 0-.2.1-.3.2-.5.3l-.7.3c-.3.1-.6.1-1 .1-.5 0-.9-.1-1.2-.2-.4-.2-.7-.4-.9-.7-.2-.3-.4-.7-.6-1.2-.1-.5-.2-1-.2-1.6 0-.6.1-1.2.2-1.6.1-.5.3-.9.6-1.2.3-.3.6-.6.9-.8.4-.2.8-.3 1.2-.3.4 0 .7 0 1 .1.3.1.5.2.7.3.2.1.4.2.5.3.1.1.2.1.2.1l.1-.1v-.7l-.1-.1s-.1-.1-.3-.2c-.2-.1-.3-.2-.6-.3-.2-.1-.4-.1-.7-.2h-1zM439.4 73.4v.2c0 .1 0 .1-.1.2l-.1.1h-4.6c-.1 0-.2 0-.3-.1-.1-.1-.1-.2-.1-.4v-8.3c0-.2 0-.3.1-.4.1-.1.2-.1.3-.1h4.5l.1.1v.8s0 .1-.1.1h-3.8000000000000003v2.9h3.2l.1.1v.8s0 .1-.1.1h-3.2v3.3h3.8000000000000003s.1 0 .1.1c0 0 0 .1.1.2s.1.2.1.3zM439.1 74h-4.5c-.1 0-.3 0-.4-.1-.1-.1-.2-.3-.2-.5v-8.3c0-.2.1-.4.2-.5.1-.1.2-.1.4-.1h4.6000000000000005c.1 0 .1.1.1.1 0 .1 0 .1.1.2v.5c0 .1 0 .1-.1.2 0 .1-.1.1-.1.1h-3.7v2.7h3c.1 0 .1 0 .2.1l.1.1c0 .1 0 .1.1.2v.5c0 .1 0 .1-.1.2 0 .1-.1.1-.1.1h-3.2v3.1h3.8000000000000003l.1.1.1.2v.5c0 .1 0 .1-.1.2 0 .1-.1.1-.1.1-.1.3-.1.3-.2.3zm-4.5-9.3c-.1 0-.2 0-.2.1-.1.1-.1.2-.1.3v8.3c0 .1 0 .2.1.3.1.1.2.1.2.1h4.5v-.7000000000000001h-3.8v-3.6h3.3v-.7h-3.3v-3.2h3.8v-.6h-4.5z"/></g></svg>